# xmcd
#
# Track frame offsets: 
#        150
#        14497
#        29437
#        43405
#        56462
#        70807
#        85460
#        98970
#        113302
#        126945
#        139672
#        153242
#        166207
#        180887
#        195232
#        209447
#        223817
#        238502
#        252550
#        265752
#        280432
#        295285
#        307412
#        322620
#
# Disc length: 4474 seconds
#
# Revision: 4
# Processed by: cddbd v1.5.2PL0 Copyright (c) Steve Scherf et al.
# Submitted via: ExactAudioCopyFreeDBPlugin 1.0
#
DISCID=60117818
DTITLE=Various Artist - Son House and the Great Delta Blues Singers, 
DTITLE=1928-1930 [Document Records]
DYEAR=2000
DGENRE=Blues
TTITLE0=Son House - My Black Mama (Part 1)
TTITLE1=Son House - My Black Mama (Part 2)
TTITLE2=Son House - Preachin' the Blues (Part 1)
TTITLE3=Son House - Preachin' the Blues (Part 2)
TTITLE4=Son House - Dry Spell Blues (Part 1)
TTITLE5=Son House - Dry Spell Blues (Part 2)
TTITLE6=Son House - Walking Blues
TTITLE7=Willie Brown - M and O Blues
TTITLE8=Willie Brown - Future Blues
TTITLE9=Kid Bailey - Mississippi Bottom Blues
TTITLE10=Kid Bailey - Rowdy Blues
TTITLE11=Garfield Akers - Cottonfield Blues (Part 1)
TTITLE12=Garfield Akers - Cottonfield Blues (Part 2)
TTITLE13=Garfield Akers - Dough Roller Blues
TTITLE14=Garfield Akers - Jumpin' and Shoutin' Blues
TTITLE15=Joe Calicott - Fare Thee Well Blues
TTITLE16=Joe Calicott - Traveling Mama Blues
TTITLE17=Jim Thompkins - Bedside Blues
TTITLE18=Blind Joe (Willie) Reynolds - Outside Woman Blues
TTITLE19=Blind Joe (Willie) Reynolds - Nehi Blues
TTITLE20=Blind Joe (Willie) Reynolds - Married Man Blues
TTITLE21=Blind Joe (Willie) Reynolds - Third Street Woman Blues
TTITLE22=Rube Lacy - Mississippi Jail House Groan
TTITLE23=Rube Lacy - Ham Hound Crave
EXTD=Document Records DOCD-5002\n\nCompiled and produced by Johnny Par
EXTD=th
EXTT0=House, Son
EXTT1=House, Son
EXTT2=
EXTT3=
EXTT4=
EXTT5=
EXTT6=
EXTT7=
EXTT8=
EXTT9=
EXTT10=
EXTT11=
EXTT12=
EXTT13=
EXTT14=
EXTT15=
EXTT16=
EXTT17=
EXTT18=
EXTT19=
EXTT20=
EXTT21=
EXTT22=
EXTT23=
PLAYORDER=
